<?xml version="1.0" encoding="iso-8859-1"?>
<!-- Generator: Adobe Illustrator 19.0.0, SVG Export Plug-In . SVG Version: 6.00 Build 0)  -->
<svg version="1.1" id="Layer_1" xmlns="http://www.w3.org/2000/svg" xmlns:xlink="http://www.w3.org/1999/xlink" x="0px" y="0px"
	 width="24" height="24"  fill="white" viewBox="0 0 512.001 512.001" style="enable-background:new 0 0 512.001 512.001;" xml:space="preserve">
<g>
	<g>
		<path d="M482.96,184.533c-4.416-31.468-28.417-56.739-59.254-63.023V105c0-24.813-20.187-45-45-45h-75c0-33.084-26.916-60-60-60
			c-33.084,0-60,26.916-60,60v120h-34.091c-0.39,0-0.777,0.015-1.16,0.044l-5.123-28.461c-6.49-35.684-37.552-61.584-73.86-61.583
			H18.704c-8.284,0-15,6.716-15,15s6.716,15,15,15h50.77c21.8,0,40.448,15.539,44.336,36.924l35.658,198.126
			c1.099,6.044,3.372,11.619,6.557,16.51c-10.532,8.244-17.32,21.061-17.32,35.441c0,15.914,8.311,29.915,20.814,37.918
			c-3.694,6.529-5.814,14.061-5.814,22.082c0,24.813,20.187,45,45,45s45-20.187,45-45c0-5.258-0.915-10.305-2.58-15h125.161
			c-1.665,4.695-2.58,9.742-2.58,15c0,24.813,20.187,45,45,45s45-20.187,45-45c0-5.258-0.915-10.305-2.58-15h17.58
			c8.284,0,15-6.716,15-15s-6.716-15-15-15h-285c-8.271,0-15-6.729-15-15s6.729-15,15-15c1.255,0-9.941,0,259.586,0
			c22.088,0,40.756-15.814,44.394-37.642l19.994-121.961C510.967,212.673,500.873,193.241,482.96,184.533z M408.704,452
			c8.271,0,15,6.729,15,15s-6.729,15-15,15s-15-6.729-15-15S400.433,452,408.704,452z M198.704,452c8.271,0,15,6.729,15,15
			s-6.729,15-15,15s-15-6.729-15-15S190.433,452,198.704,452z M408.703,150c0,0,0.001,0,0.002,0
			c19.554,0.001,36.227,12.542,42.418,30h-84.839c6.192-17.458,22.864-29.999,42.418-30C408.703,150,408.703,150,408.703,150z
			 M303.704,90h75c8.271,0,15,6.729,15,15v16.509c-29.344,5.98-52.51,29.147-58.491,58.491h-31.509V90z M213.704,60
			c0-16.542,13.458-30,30-30s30,13.458,30,30h-15c-8.284,0-15,6.716-15,15s6.716,15,15,15h15v30h-15c-8.284,0-15,6.716-15,15
			s6.716,15,15,15h15v30h-60V60z M213.704,362h-19.962c-7.254,0-13.46-5.18-14.753-12.291L164.642,270h49.062V362z M273.704,362h-30
			v-92h30V362z M333.704,362h-30v-92h30V362z M393.704,362h-30v-92h30V362z M458.087,349.466
			C456.876,356.729,450.653,362,443.29,362h-19.586v-92h47.41L458.087,349.466z M478.08,227.505L476.031,240H159.243l-5.399-30
			c23.906,0,295.467,0,309.446,0C472.565,210,479.618,218.269,478.08,227.505z"/>
	</g>
</g>
<g>
</g>
<g>
</g>
<g>
</g>
<g>
</g>
<g>
</g>
<g>
</g>
<g>
</g>
<g>
</g>
<g>
</g>
<g>
</g>
<g>
</g>
<g>
</g>
<g>
</g>
<g>
</g>
<g>
</g>
</svg>
