<?xml version="1.0" encoding="iso-8859-1"?>
<!-- Generator: Adobe Illustrator 19.0.0, SVG Export Plug-In . SVG Version: 6.00 Build 0)  -->
<svg version="1.1" id="Layer_1" xmlns="http://www.w3.org/2000/svg" xmlns:xlink="http://www.w3.org/1999/xlink" x="0px" y="0px"
	  width="24" height="24" fill="white" viewBox="0 0 512 512" style="enable-background:new 0 0 512 512;" xml:space="preserve">
<g>
	<g>
		<g>
			<path d="M224,320c88.229,0,160-71.771,160-160S312.229,0,224,0S64,71.771,64,160S135.771,320,224,320z M224,21.333
				c76.458,0,138.667,62.208,138.667,138.667S300.458,298.667,224,298.667S85.333,236.458,85.333,160S147.542,21.333,224,21.333z"/>
			<path d="M229.333,202.667H192c-5.896,0-10.667,4.771-10.667,10.667c0,5.896,4.771,10.667,10.667,10.667h21.333v10.667
				c0,5.896,4.771,10.667,10.667,10.667s10.667-4.771,10.667-10.667v-11.206c18.046-2.615,32-18.036,32-36.794
				c0-20.583-16.75-37.333-37.333-37.333h-10.667c-8.823,0-16-7.177-16-16c0-8.823,7.177-16,16-16H256
				c5.896,0,10.667-4.771,10.667-10.667C266.667,100.771,261.896,96,256,96h-21.333V85.333c0-5.896-4.771-10.667-10.667-10.667
				s-10.667,4.771-10.667,10.667v11.206c-18.046,2.615-32,18.036-32,36.794c0,20.583,16.75,37.333,37.333,37.333h10.667
				c8.823,0,16,7.177,16,16C245.333,195.49,238.156,202.667,229.333,202.667z"/>
			<path d="M437.333,298.667H352c-5.896,0-10.667,4.771-10.667,10.667c0,5.896,4.771,10.667,10.667,10.667h59.583l-134.25,134.25
				l-77.792-77.792c-4.167-4.167-10.917-4.167-15.083,0L67.125,493.792c-4.167,4.167-4.167,10.917,0,15.083
				c2.083,2.083,4.813,3.125,7.542,3.125c2.729,0,5.458-1.042,7.542-3.125L192,399.083l77.792,77.792
				c4.167,4.167,10.917,4.167,15.083,0l141.792-141.792v59.583c0,5.896,4.771,10.667,10.667,10.667
				c5.896,0,10.667-4.771,10.667-10.667v-85.333C448,303.438,443.229,298.667,437.333,298.667z"/>
		</g>
	</g>
</g>
<g>
</g>
<g>
</g>
<g>
</g>
<g>
</g>
<g>
</g>
<g>
</g>
<g>
</g>
<g>
</g>
<g>
</g>
<g>
</g>
<g>
</g>
<g>
</g>
<g>
</g>
<g>
</g>
<g>
</g>
</svg>
